<svg width="14" height="10" fill="none" xmlns="http://www.w3.org/2000/svg"><path d="M3.936 9.601a.5.5 0 00.5-.5v-.285a.5.5 0 00-.5-.5H1.89V5.683h1.717a.5.5 0 00.5-.5v-.21a.5.5 0 00-.5-.5H1.891V1.84h2.045a.5.5 0 00.5-.5v-.21a.5.5 0 00-.5-.5h-2.83a.5.5 0 00-.5.5v7.971a.5.5 0 00.5.5h2.83zm3.007.076c.411 0 .76-.067 1.045-.202.286-.134.517-.319.693-.554.168-.227.29-.502.366-.825.075-.324.113-.674.113-1.052 0-.328-.017-.62-.05-.876a2.385 2.385 0 00-.19-.687 1.654 1.654 0 00-.415-.51 2.437 2.437 0 00-.693-.384l-.983-.39a2.025 2.025 0 01-.397-.203.7.7 0 01-.22-.239.837.837 0 01-.095-.315A4.257 4.257 0 016.098 3c0-.152.013-.297.038-.436.025-.138.072-.262.139-.371a.845.845 0 01.264-.252.804.804 0 01.429-.101c.327 0 .56.107.7.321.138.214.207.46.207.615 0 .241.196.437.437.437h.348a.5.5 0 00.5-.5v-.13c0-.52-.193-.983-.58-1.386a2.256 2.256 0 00-.686-.466 2.132 2.132 0 00-.876-.176c-.378 0-.703.065-.976.195s-.498.304-.674.523a2.178 2.178 0 00-.416.781 3.26 3.26 0 00-.139.958c0 .562.095 1.03.284 1.405.189.373.56.674 1.115.9l.92.378c.16.068.287.13.384.19a.708.708 0 01.233.226c.05.093.084.214.1.366a7.199 7.199 0 01.006 1.128.995.995 0 01-.119.421.678.678 0 01-.283.271c-.122.063-.292.095-.51.095-.328 0-.561-.095-.7-.284a1.05 1.05 0 01-.208-.636.403.403 0 00-.403-.403H5.23a.479.479 0 00-.479.479c0 .302.057.581.17.838.114.256.267.48.46.674.193.193.424.344.693.453.269.11.559.164.87.164zm4.95 0a1.9 1.9 0 00.8-.17c.249-.113.465-.267.65-.46.184-.193.33-.414.434-.661.105-.248.158-.51.158-.788v-.054a.5.5 0 00-.5-.5h-.344a.441.441 0 00-.441.44c0 .177-.026.324-.076.442a.769.769 0 01-.189.277.808.808 0 01-.27.145.933.933 0 01-.272.044c-.294 0-.497-.088-.61-.265a1.188 1.188 0 01-.17-.655V2.886c0-.303.052-.553.157-.75.105-.197.317-.296.636-.296.244 0 .437.092.58.277.142.185.214.403.214.655 0 .237.191.429.428.429h.353a.504.504 0 00.504-.504c0-.311-.053-.599-.158-.863a2.104 2.104 0 00-.434-.687c-.378-.395-.87-.592-1.475-.592-.31 0-.594.052-.85.157a1.927 1.927 0 00-1.09 1.09c-.1.252-.151.525-.151.82V7.56c0 .412.065.75.195 1.015.13.264.296.48.498.648.201.168.428.286.68.353.252.067.5.101.744.101z" fill="#fff"/></svg>